<?xml version="1.0" encoding="UTF-8" standalone="no"?>
<!-- Created with Inkscape (http://www.inkscape.org/) -->

<svg
   width="83.09433mm"
   height="83.09433mm"
   viewBox="0 0 83.09433 83.09433"
   version="1.1"
   id="svg5"
   xml:space="preserve"
   xmlns="http://www.w3.org/2000/svg"
   xmlns:svg="http://www.w3.org/2000/svg"><defs
     id="defs2" /><g
     id="layer1"
     transform="translate(-62.500337,-129.67025)"><g
       transform="matrix(0.03527778,0,0,-0.03527778,59.330315,214.70666)"
       fill="#000000"
       stroke="none"
       id="g15"><circle
         style="fill:#ffffff;stroke-width:7.5"
         id="path333"
         cx="1267.5736"
         cy="-1232.7664"
         r="1177.7147"
         transform="scale(1,-1)" /><path
         d="m 1517,2115 c -77,-27 -101,-41 -159,-93 -117,-106 -166,-273 -128,-437 33,-143 172,-282 315,-315 220,-51 438,57 522,260 34,83 39,223 10,310 -41,119 -154,234 -272,275 -27,10 -88,19 -135,21 -70,3 -97,-1 -153,-21 z"
         id="path9" /><path
         d="m 580,2096 c 0,-14 4,-27 8,-30 5,-3 46,-8 91,-12 50,-4 88,-13 97,-21 8,-8 14,-34 14,-61 0,-136 -198,-1330 -231,-1393 -4,-9 -30,-24 -56,-34 -62,-23 -73,-32 -73,-61 v -24 l 395,-2 c 217,-2 468,-3 557,-3 h 163 l 6,25 c 4,14 15,90 25,170 9,80 19,160 22,178 4,31 3,32 -31,32 -31,0 -35,-3 -41,-32 -13,-67 -59,-205 -75,-227 -11,-14 -35,-26 -62,-32 -55,-10 -600,-12 -610,-2 -5,5 3,95 16,202 32,246 171,1107 192,1184 21,77 43,93 140,102 78,7 93,15 93,48 0,16 -22,17 -320,17 H 580 Z"
         id="path11" /><path
         d="m 2209,1234 c -5,-14 -9,-30 -9,-35 0,-5 -9,-27 -20,-48 -50,-98 -159,-134 -291,-95 -30,9 -121,43 -204,76 -231,92 -316,118 -394,118 -155,0 -255,-104 -276,-288 l -7,-64 27,4 c 22,2 29,11 43,53 37,108 97,155 200,155 74,0 123,-15 356,-107 228,-89 292,-107 367,-100 144,13 250,137 253,295 1,46 -2,55 -17,58 -12,1 -22,-7 -28,-22 z"
         id="path13" /></g></g></svg>
